<svg width="446" height="31" viewBox="0 0 446 31" fill="none" xmlns="http://www.w3.org/2000/svg">
<g id="SANDER NICOLAYSEN">
<path d="M12.902 30.42C10.102 30.42 7.778 30.028 5.93 29.244C4.082 28.432 2.682 27.382 1.73 26.094C0.778 24.806 0.274 23.434 0.218 21.978C0.218 21.754 0.302 21.558 0.47 21.39C0.666 21.194 0.89 21.096 1.142 21.096H6.434C6.826 21.096 7.12 21.166 7.316 21.306C7.54 21.446 7.736 21.628 7.904 21.852C8.128 22.272 8.436 22.678 8.828 23.07C9.248 23.462 9.78 23.784 10.424 24.036C11.096 24.26 11.922 24.372 12.902 24.372C14.526 24.372 15.744 24.12 16.556 23.616C17.396 23.112 17.816 22.426 17.816 21.558C17.816 20.942 17.592 20.438 17.144 20.046C16.696 19.626 15.968 19.262 14.96 18.954C13.98 18.618 12.664 18.282 11.012 17.946C8.884 17.498 7.064 16.924 5.552 16.224C4.068 15.496 2.934 14.558 2.15 13.41C1.366 12.234 0.974 10.778 0.974 9.042C0.974 7.334 1.45 5.808 2.402 4.464C3.382 3.12 4.74 2.07 6.476 1.314C8.212 0.557999 10.27 0.179998 12.65 0.179998C14.582 0.179998 16.276 0.431998 17.732 0.935999C19.216 1.44 20.462 2.112 21.47 2.952C22.478 3.792 23.234 4.688 23.738 5.64C24.27 6.564 24.55 7.474 24.578 8.37C24.578 8.594 24.494 8.804 24.326 9C24.158 9.168 23.948 9.252 23.696 9.252H18.152C17.844 9.252 17.578 9.196 17.354 9.084C17.13 8.972 16.934 8.79 16.766 8.538C16.598 7.922 16.15 7.39 15.422 6.942C14.722 6.466 13.798 6.228 12.65 6.228C11.418 6.228 10.452 6.452 9.752 6.9C9.08 7.32 8.744 7.978 8.744 8.874C8.744 9.434 8.926 9.924 9.29 10.344C9.682 10.764 10.312 11.128 11.18 11.436C12.076 11.744 13.294 12.066 14.834 12.402C17.382 12.878 19.44 13.48 21.008 14.208C22.576 14.908 23.724 15.832 24.452 16.98C25.18 18.1 25.544 19.514 25.544 21.222C25.544 23.126 24.998 24.778 23.906 26.178C22.842 27.55 21.358 28.6 19.454 29.328C17.55 30.056 15.366 30.42 12.902 30.42ZM27.6174 30C27.3934 30 27.1834 29.916 26.9874 29.748C26.8194 29.552 26.7354 29.342 26.7354 29.118C26.7354 28.978 26.7494 28.852 26.7774 28.74L36.6474 1.776C36.7314 1.468 36.8994 1.202 37.1514 0.977998C37.4314 0.725998 37.8094 0.599998 38.2854 0.599998H44.5014C44.9774 0.599998 45.3414 0.725998 45.5934 0.977998C45.8734 1.202 46.0554 1.468 46.1394 1.776L55.9674 28.74C56.0234 28.852 56.0514 28.978 56.0514 29.118C56.0514 29.342 55.9534 29.552 55.7574 29.748C55.5894 29.916 55.3794 30 55.1274 30H49.9614C49.5414 30 49.2194 29.902 48.9954 29.706C48.7994 29.482 48.6734 29.286 48.6174 29.118L46.9794 24.834H35.7654L34.1694 29.118C34.1134 29.286 33.9874 29.482 33.7914 29.706C33.5954 29.902 33.2594 30 32.7834 30H27.6174ZM37.4874 18.786H45.2994L41.3514 7.698L37.4874 18.786ZM60.4119 30C60.1039 30 59.8519 29.902 59.6559 29.706C59.4599 29.51 59.3619 29.258 59.3619 28.95V1.65C59.3619 1.342 59.4599 1.09 59.6559 0.893999C59.8519 0.697998 60.1039 0.599998 60.4119 0.599998H64.8639C65.3399 0.599998 65.6759 0.711998 65.8719 0.935999C66.0959 1.132 66.2359 1.286 66.2919 1.398L76.5399 17.568V1.65C76.5399 1.342 76.6379 1.09 76.8339 0.893999C77.0299 0.697998 77.2819 0.599998 77.5899 0.599998H82.6299C82.9379 0.599998 83.1899 0.697998 83.3859 0.893999C83.5819 1.09 83.6799 1.342 83.6799 1.65V28.95C83.6799 29.23 83.5819 29.482 83.3859 29.706C83.1899 29.902 82.9379 30 82.6299 30H78.1359C77.6879 30 77.3519 29.888 77.1279 29.664C76.9319 29.44 76.8059 29.286 76.7499 29.202L66.5019 13.662V28.95C66.5019 29.258 66.4039 29.51 66.2079 29.706C66.0119 29.902 65.7599 30 65.4519 30H60.4119ZM90.5994 30C90.2914 30 90.0394 29.902 89.8434 29.706C89.6474 29.51 89.5494 29.258 89.5494 28.95V1.65C89.5494 1.342 89.6474 1.09 89.8434 0.893999C90.0394 0.697998 90.2914 0.599998 90.5994 0.599998H101.519C104.263 0.599998 106.601 1.048 108.533 1.944C110.465 2.812 111.949 4.1 112.985 5.808C114.021 7.488 114.581 9.574 114.665 12.066C114.693 13.298 114.707 14.376 114.707 15.3C114.707 16.224 114.693 17.288 114.665 18.492C114.553 21.096 113.993 23.252 112.985 24.96C112.005 26.668 110.563 27.942 108.659 28.782C106.783 29.594 104.473 30 101.729 30H90.5994ZM97.0674 23.952H101.519C102.723 23.952 103.717 23.77 104.501 23.406C105.313 23.014 105.915 22.412 106.307 21.6C106.727 20.788 106.951 19.724 106.979 18.408C107.035 17.596 107.063 16.868 107.063 16.224C107.091 15.58 107.091 14.936 107.063 14.292C107.063 13.648 107.035 12.934 106.979 12.15C106.923 10.246 106.419 8.86 105.467 7.992C104.543 7.096 103.157 6.648 101.309 6.648H97.0674V23.952ZM120.664 30C120.356 30 120.104 29.902 119.908 29.706C119.712 29.51 119.614 29.258 119.614 28.95V1.65C119.614 1.342 119.712 1.09 119.908 0.893999C120.104 0.697998 120.356 0.599998 120.664 0.599998H140.278C140.586 0.599998 140.838 0.697998 141.034 0.893999C141.23 1.09 141.328 1.342 141.328 1.65V5.598C141.328 5.906 141.23 6.158 141.034 6.354C140.838 6.55 140.586 6.648 140.278 6.648H126.88V12.318H139.354C139.662 12.318 139.914 12.43 140.11 12.654C140.306 12.85 140.404 13.102 140.404 13.41V17.064C140.404 17.344 140.306 17.596 140.11 17.82C139.914 18.016 139.662 18.114 139.354 18.114H126.88V23.952H140.614C140.922 23.952 141.174 24.05 141.37 24.246C141.566 24.442 141.664 24.694 141.664 25.002V28.95C141.664 29.258 141.566 29.51 141.37 29.706C141.174 29.902 140.922 30 140.614 30H120.664ZM147.488 30C147.18 30 146.928 29.902 146.732 29.706C146.536 29.51 146.438 29.258 146.438 28.95V1.65C146.438 1.342 146.536 1.09 146.732 0.893999C146.928 0.697998 147.18 0.599998 147.488 0.599998H158.912C162.524 0.599998 165.366 1.44 167.438 3.12C169.538 4.772 170.588 7.124 170.588 10.176C170.588 12.164 170.098 13.844 169.118 15.216C168.166 16.588 166.906 17.624 165.338 18.324L171.134 28.656C171.218 28.824 171.26 28.978 171.26 29.118C171.26 29.342 171.162 29.552 170.966 29.748C170.798 29.916 170.588 30 170.336 30H164.792C164.26 30 163.868 29.874 163.616 29.622C163.364 29.342 163.182 29.09 163.07 28.866L158.282 19.626H153.956V28.95C153.956 29.258 153.858 29.51 153.662 29.706C153.466 29.902 153.214 30 152.906 30H147.488ZM153.956 13.704H158.828C160.144 13.704 161.124 13.382 161.768 12.738C162.44 12.094 162.776 11.212 162.776 10.092C162.776 9 162.454 8.118 161.81 7.446C161.194 6.774 160.2 6.438 158.828 6.438H153.956V13.704Z" fill="#363C4A"/>
<path d="M185.469 30C185.161 30 184.909 29.902 184.713 29.706C184.517 29.51 184.419 29.258 184.419 28.95V1.65C184.419 1.342 184.517 1.09 184.713 0.893999C184.909 0.697998 185.161 0.599998 185.469 0.599998H189.921C190.397 0.599998 190.733 0.711998 190.929 0.935999C191.153 1.132 191.293 1.286 191.349 1.398L201.597 17.568V1.65C201.597 1.342 201.695 1.09 201.891 0.893999C202.087 0.697998 202.339 0.599998 202.647 0.599998H207.687C207.995 0.599998 208.247 0.697998 208.443 0.893999C208.639 1.09 208.737 1.342 208.737 1.65V28.95C208.737 29.23 208.639 29.482 208.443 29.706C208.247 29.902 207.995 30 207.687 30H203.193C202.745 30 202.409 29.888 202.185 29.664C201.989 29.44 201.863 29.286 201.807 29.202L191.559 13.662V28.95C191.559 29.258 191.461 29.51 191.265 29.706C191.069 29.902 190.817 30 190.509 30H185.469ZM215.656 30C215.348 30 215.096 29.902 214.9 29.706C214.704 29.51 214.606 29.258 214.606 28.95V1.65C214.606 1.342 214.704 1.09 214.9 0.893999C215.096 0.697998 215.348 0.599998 215.656 0.599998H221.284C221.592 0.599998 221.844 0.697998 222.04 0.893999C222.236 1.09 222.334 1.342 222.334 1.65V28.95C222.334 29.258 222.236 29.51 222.04 29.706C221.844 29.902 221.592 30 221.284 30H215.656ZM240.277 30.42C237.617 30.42 235.335 29.986 233.431 29.118C231.555 28.25 230.085 26.976 229.021 25.296C227.985 23.616 227.411 21.53 227.299 19.038C227.271 17.89 227.257 16.658 227.257 15.342C227.257 14.026 227.271 12.766 227.299 11.562C227.411 9.126 227.999 7.068 229.063 5.388C230.127 3.68 231.611 2.392 233.515 1.524C235.419 0.627998 237.673 0.179998 240.277 0.179998C242.125 0.179998 243.833 0.417999 245.401 0.893999C246.969 1.342 248.341 2.014 249.517 2.91C250.693 3.778 251.603 4.842 252.247 6.102C252.919 7.334 253.269 8.734 253.297 10.302C253.325 10.554 253.241 10.764 253.045 10.932C252.877 11.1 252.667 11.184 252.415 11.184H246.745C246.381 11.184 246.101 11.114 245.905 10.974C245.709 10.806 245.541 10.512 245.401 10.092C245.009 8.608 244.365 7.6 243.469 7.068C242.601 6.508 241.523 6.228 240.235 6.228C238.695 6.228 237.477 6.662 236.581 7.53C235.685 8.37 235.195 9.784 235.111 11.772C235.027 14.068 235.027 16.42 235.111 18.828C235.195 20.816 235.685 22.244 236.581 23.112C237.477 23.952 238.695 24.372 240.235 24.372C241.523 24.372 242.615 24.092 243.511 23.532C244.407 22.972 245.037 21.964 245.401 20.508C245.513 20.088 245.667 19.808 245.863 19.668C246.087 19.5 246.381 19.416 246.745 19.416H252.415C252.667 19.416 252.877 19.5 253.045 19.668C253.241 19.836 253.325 20.046 253.297 20.298C253.269 21.866 252.919 23.28 252.247 24.54C251.603 25.772 250.693 26.836 249.517 27.732C248.341 28.6 246.969 29.272 245.401 29.748C243.833 30.196 242.125 30.42 240.277 30.42ZM269.725 30.42C267.149 30.42 264.909 30 263.005 29.16C261.101 28.32 259.617 27.06 258.553 25.38C257.489 23.672 256.901 21.544 256.789 18.996C256.761 17.792 256.747 16.588 256.747 15.384C256.747 14.18 256.761 12.962 256.789 11.73C256.901 9.21 257.489 7.096 258.553 5.388C259.645 3.652 261.143 2.35 263.047 1.482C264.951 0.613999 267.177 0.179998 269.725 0.179998C272.245 0.179998 274.457 0.613999 276.361 1.482C278.293 2.35 279.805 3.652 280.897 5.388C281.989 7.096 282.577 9.21 282.661 11.73C282.717 12.962 282.745 14.18 282.745 15.384C282.745 16.588 282.717 17.792 282.661 18.996C282.549 21.544 281.961 23.672 280.897 25.38C279.833 27.06 278.349 28.32 276.445 29.16C274.541 30 272.301 30.42 269.725 30.42ZM269.725 24.372C271.209 24.372 272.413 23.924 273.337 23.028C274.289 22.132 274.793 20.704 274.849 18.744C274.905 17.512 274.933 16.35 274.933 15.258C274.933 14.166 274.905 13.032 274.849 11.856C274.793 10.54 274.541 9.476 274.093 8.664C273.673 7.824 273.085 7.208 272.329 6.816C271.573 6.424 270.705 6.228 269.725 6.228C268.773 6.228 267.919 6.424 267.163 6.816C266.407 7.208 265.805 7.824 265.357 8.664C264.909 9.476 264.657 10.54 264.601 11.856C264.573 13.032 264.559 14.166 264.559 15.258C264.559 16.35 264.573 17.512 264.601 18.744C264.685 20.704 265.189 22.132 266.113 23.028C267.037 23.924 268.241 24.372 269.725 24.372ZM288.664 30C288.356 30 288.104 29.902 287.908 29.706C287.712 29.51 287.614 29.258 287.614 28.95V1.65C287.614 1.342 287.712 1.09 287.908 0.893999C288.104 0.697998 288.356 0.599998 288.664 0.599998H294.208C294.488 0.599998 294.726 0.697998 294.922 0.893999C295.146 1.09 295.258 1.342 295.258 1.65V23.658H307.942C308.25 23.658 308.502 23.77 308.698 23.994C308.922 24.19 309.034 24.442 309.034 24.75V28.95C309.034 29.258 308.922 29.51 308.698 29.706C308.502 29.902 308.25 30 307.942 30H288.664ZM310.994 30C310.77 30 310.56 29.916 310.364 29.748C310.196 29.552 310.112 29.342 310.112 29.118C310.112 28.978 310.126 28.852 310.154 28.74L320.024 1.776C320.108 1.468 320.276 1.202 320.528 0.977998C320.808 0.725998 321.186 0.599998 321.662 0.599998H327.878C328.354 0.599998 328.718 0.725998 328.97 0.977998C329.25 1.202 329.432 1.468 329.516 1.776L339.344 28.74C339.4 28.852 339.428 28.978 339.428 29.118C339.428 29.342 339.33 29.552 339.134 29.748C338.966 29.916 338.756 30 338.504 30H333.338C332.918 30 332.596 29.902 332.372 29.706C332.176 29.482 332.05 29.286 331.994 29.118L330.356 24.834H319.142L317.546 29.118C317.49 29.286 317.364 29.482 317.168 29.706C316.972 29.902 316.636 30 316.16 30H310.994ZM320.864 18.786H328.676L324.728 7.698L320.864 18.786ZM347.945 30C347.665 30 347.413 29.902 347.189 29.706C346.993 29.51 346.895 29.258 346.895 28.95V19.92L337.151 1.944C337.123 1.86 337.095 1.79 337.067 1.734C337.039 1.65 337.025 1.566 337.025 1.482C337.025 1.258 337.109 1.062 337.277 0.893999C337.473 0.697998 337.697 0.599998 337.949 0.599998H343.199C343.619 0.599998 343.941 0.711998 344.165 0.935999C344.417 1.132 344.571 1.314 344.627 1.482L350.675 12.318L356.723 1.482C356.807 1.314 356.961 1.132 357.185 0.935999C357.437 0.711998 357.773 0.599998 358.193 0.599998H363.443C363.695 0.599998 363.905 0.697998 364.073 0.893999C364.241 1.062 364.325 1.258 364.325 1.482C364.325 1.566 364.311 1.65 364.283 1.734C364.283 1.79 364.269 1.86 364.241 1.944L354.455 19.92V28.95C354.455 29.258 354.357 29.51 354.161 29.706C353.965 29.902 353.713 30 353.405 30H347.945ZM377.859 30.42C375.059 30.42 372.735 30.028 370.887 29.244C369.039 28.432 367.639 27.382 366.687 26.094C365.735 24.806 365.231 23.434 365.175 21.978C365.175 21.754 365.259 21.558 365.427 21.39C365.623 21.194 365.847 21.096 366.099 21.096H371.391C371.783 21.096 372.077 21.166 372.273 21.306C372.497 21.446 372.693 21.628 372.861 21.852C373.085 22.272 373.393 22.678 373.785 23.07C374.205 23.462 374.737 23.784 375.381 24.036C376.053 24.26 376.879 24.372 377.859 24.372C379.483 24.372 380.701 24.12 381.513 23.616C382.353 23.112 382.773 22.426 382.773 21.558C382.773 20.942 382.549 20.438 382.101 20.046C381.653 19.626 380.925 19.262 379.917 18.954C378.937 18.618 377.621 18.282 375.969 17.946C373.841 17.498 372.021 16.924 370.509 16.224C369.025 15.496 367.891 14.558 367.107 13.41C366.323 12.234 365.931 10.778 365.931 9.042C365.931 7.334 366.407 5.808 367.359 4.464C368.339 3.12 369.697 2.07 371.433 1.314C373.169 0.557999 375.227 0.179998 377.607 0.179998C379.539 0.179998 381.233 0.431998 382.689 0.935999C384.173 1.44 385.419 2.112 386.427 2.952C387.435 3.792 388.191 4.688 388.695 5.64C389.227 6.564 389.507 7.474 389.535 8.37C389.535 8.594 389.451 8.804 389.283 9C389.115 9.168 388.905 9.252 388.653 9.252H383.109C382.801 9.252 382.535 9.196 382.311 9.084C382.087 8.972 381.891 8.79 381.723 8.538C381.555 7.922 381.107 7.39 380.379 6.942C379.679 6.466 378.755 6.228 377.607 6.228C376.375 6.228 375.409 6.452 374.709 6.9C374.037 7.32 373.701 7.978 373.701 8.874C373.701 9.434 373.883 9.924 374.247 10.344C374.639 10.764 375.269 11.128 376.137 11.436C377.033 11.744 378.251 12.066 379.791 12.402C382.339 12.878 384.397 13.48 385.965 14.208C387.533 14.908 388.681 15.832 389.409 16.98C390.137 18.1 390.501 19.514 390.501 21.222C390.501 23.126 389.955 24.778 388.863 26.178C387.799 27.55 386.315 28.6 384.411 29.328C382.507 30.056 380.323 30.42 377.859 30.42ZM395.756 30C395.448 30 395.196 29.902 395 29.706C394.804 29.51 394.706 29.258 394.706 28.95V1.65C394.706 1.342 394.804 1.09 395 0.893999C395.196 0.697998 395.448 0.599998 395.756 0.599998H415.37C415.678 0.599998 415.93 0.697998 416.126 0.893999C416.322 1.09 416.42 1.342 416.42 1.65V5.598C416.42 5.906 416.322 6.158 416.126 6.354C415.93 6.55 415.678 6.648 415.37 6.648H401.972V12.318H414.446C414.754 12.318 415.006 12.43 415.202 12.654C415.398 12.85 415.496 13.102 415.496 13.41V17.064C415.496 17.344 415.398 17.596 415.202 17.82C415.006 18.016 414.754 18.114 414.446 18.114H401.972V23.952H415.706C416.014 23.952 416.266 24.05 416.462 24.246C416.658 24.442 416.756 24.694 416.756 25.002V28.95C416.756 29.258 416.658 29.51 416.462 29.706C416.266 29.902 416.014 30 415.706 30H395.756ZM422.58 30C422.272 30 422.02 29.902 421.824 29.706C421.628 29.51 421.53 29.258 421.53 28.95V1.65C421.53 1.342 421.628 1.09 421.824 0.893999C422.02 0.697998 422.272 0.599998 422.58 0.599998H427.032C427.508 0.599998 427.844 0.711998 428.04 0.935999C428.264 1.132 428.404 1.286 428.46 1.398L438.708 17.568V1.65C438.708 1.342 438.806 1.09 439.002 0.893999C439.198 0.697998 439.45 0.599998 439.758 0.599998H444.798C445.106 0.599998 445.358 0.697998 445.554 0.893999C445.75 1.09 445.848 1.342 445.848 1.65V28.95C445.848 29.23 445.75 29.482 445.554 29.706C445.358 29.902 445.106 30 444.798 30H440.304C439.856 30 439.52 29.888 439.296 29.664C439.1 29.44 438.974 29.286 438.918 29.202L428.67 13.662V28.95C428.67 29.258 428.572 29.51 428.376 29.706C428.18 29.902 427.928 30 427.62 30H422.58Z" fill="#6ABFB9"/>
</g>
</svg>
