<svg width="483" height="291" viewBox="0 0 483 291" fill="none" xmlns="http://www.w3.org/2000/svg">
<g id="undraw_version_control_re_mg66 1" clip-path="url(#clip0_75_67)">
<g id="Group 100">
<path id="Path 1465" d="M234.785 233.788C233.658 233.788 232.555 234.122 231.618 234.748C230.68 235.374 229.95 236.263 229.518 237.304C229.087 238.345 228.974 239.49 229.194 240.595C229.414 241.7 229.957 242.715 230.754 243.511C231.551 244.308 232.567 244.85 233.673 245.07C234.779 245.29 235.925 245.177 236.967 244.746C238.009 244.315 238.899 243.585 239.525 242.648C240.152 241.711 240.486 240.61 240.486 239.484C240.486 237.973 239.886 236.524 238.816 235.456C237.747 234.388 236.297 233.788 234.785 233.788ZM234.785 242.989C234.091 242.989 233.413 242.783 232.836 242.398C232.259 242.013 231.809 241.466 231.544 240.825C231.278 240.185 231.209 239.48 231.344 238.8C231.48 238.12 231.814 237.495 232.304 237.005C232.795 236.515 233.42 236.181 234.101 236.046C234.781 235.911 235.487 235.98 236.128 236.245C236.769 236.511 237.317 236.96 237.702 237.536C238.088 238.113 238.294 238.79 238.294 239.484V239.484C238.294 240.413 237.924 241.305 237.266 241.962C236.608 242.62 235.716 242.989 234.785 242.989Z" fill="#E4E4E4"/>
<path id="Path 1467" d="M212.858 229.406H234.785V251.089C234.785 251.845 234.484 252.571 233.949 253.107C233.413 253.642 232.686 253.942 231.929 253.942H215.715C214.957 253.942 214.23 253.642 213.695 253.107C213.159 252.571 212.858 251.845 212.858 251.089V229.406Z" fill="#E4E4E4"/>
</g>
<path id="Path 944" d="M330.018 254.439H0.444708C0.322485 254.425 0.209514 254.367 0.127449 254.276C0.0453831 254.184 0 254.066 0 253.943C0 253.82 0.0453831 253.702 0.127449 253.61C0.209514 253.519 0.322485 253.461 0.444708 253.447H330.018C330.14 253.461 330.253 253.519 330.335 253.61C330.417 253.702 330.462 253.82 330.462 253.943C330.462 254.066 330.417 254.184 330.335 254.276C330.253 254.367 330.14 254.425 330.018 254.439Z" fill="#CACACA"/>
<path id="Vector" d="M44.3622 245.074L42.324 255.144L80.2277 267.792L83.2365 252.93L44.3622 245.074Z" fill="#FFB6B6"/>
<path id="Vector_2" d="M48.173 243.171L44.1584 263.001L44.1582 263.002C43.4794 266.354 41.4959 269.299 38.644 271.189C35.7921 273.079 32.3054 273.761 28.9508 273.083L28.5398 273L35.1129 240.532L48.173 243.171Z" fill="#2F2E41"/>
<path id="Ellipse 276" d="M87.3153 106.374C101.529 106.374 113.052 94.8612 113.052 80.6601C113.052 66.4589 101.529 54.9466 87.3153 54.9466C73.1013 54.9466 61.5786 66.4589 61.5786 80.6601C61.5786 94.8612 73.1013 106.374 87.3153 106.374Z" fill="#FEB8B8"/>
<path id="Path 1461" d="M111.353 58.4766C107.506 52.2339 101.483 47.6339 94.4436 45.5621L91.284 47.8657V44.8745C89.5935 44.616 87.8825 44.5165 86.1735 44.5771L83.4475 47.0413V44.7818C79.4115 45.2829 75.5232 46.6141 72.0277 48.6913C68.5323 50.7686 65.5056 53.5469 63.1384 56.8511C57.2186 65.3775 56.2193 77.2396 62.0419 85.8344C63.64 80.9267 65.58 76.322 67.1787 71.4149C68.4349 71.586 69.7081 71.5921 70.9659 71.4332L72.9104 66.8999L73.4537 71.2414C79.4811 70.7169 88.4211 69.5648 94.135 68.5095L93.5793 65.1787L96.9036 67.9463C98.6541 67.5438 99.6935 67.1785 99.6077 66.8994C103.857 73.7443 109.058 78.116 113.307 84.9609C114.921 75.3093 116.779 67.284 111.353 58.4766Z" fill="#2F2E41"/>
<path id="Ellipse 260" d="M95.689 248.924C132.288 248.924 161.957 240.632 161.957 230.404C161.957 220.176 132.288 211.885 95.689 211.885C59.0902 211.885 29.4209 220.176 29.4209 230.404C29.4209 240.632 59.0902 248.924 95.689 248.924Z" fill="#2F2E41"/>
<path id="Vector_3" d="M142.861 147.195C141.976 141.875 141.063 136.454 138.589 131.662C136.962 128.523 134.381 125.532 130.901 124.911C130.215 124.85 129.541 124.694 128.899 124.448C127.879 123.957 114.176 116.142 111.998 114.78C110.128 113.612 107.176 111.448 105.687 111.448C104.19 111.415 98.4477 112.75 76.0361 111C72.2662 112.512 68.6157 114.305 65.1153 116.365C65.0431 116.317 41.854 128.758 40.9828 128.725C39.333 128.656 37.7994 129.711 36.8536 131.041C35.908 132.37 35.4644 134.015 35 135.606C40.0649 146.875 44.699 158.158 49.7644 169.428C50.0015 169.852 50.1276 170.329 50.1307 170.816C50.0289 171.32 49.8134 171.795 49.5006 172.204C47.0166 176.19 47.0955 181.204 47.3669 185.89C47.6385 190.575 47.9743 195.525 45.8784 199.724C45.3083 200.878 44.567 201.933 44.0248 203.086C42.7551 205.697 42.2962 214.05 43.0378 216.856L135.953 219.515C133.956 214.028 142.861 147.195 142.861 147.195Z" fill="#CACACA"/>
<path id="Path 1421" d="M26.7749 169.515C26.5895 170.855 26.5708 172.213 26.7193 173.557L28.0511 192.665C28.1761 194.466 28.2991 196.263 28.4683 198.059C28.7879 201.546 29.2652 205.004 29.8576 208.458C29.871 208.948 30.0785 209.413 30.4347 209.751C30.7909 210.089 31.2666 210.271 31.7574 210.259C37.6196 211.498 43.6764 211.449 49.6591 211.111C58.7886 210.602 82.1452 209.639 83.5722 207.787C84.9992 205.935 84.1676 202.939 82.307 201.442C80.4464 199.944 49.6239 196.293 49.6239 196.293C49.9251 193.909 50.8336 191.663 51.6954 189.399C53.2435 185.384 54.6893 181.237 54.7171 176.935C54.7449 172.634 53.1229 168.111 49.5961 165.647C46.695 163.624 42.9599 163.249 39.4247 163.332C36.8526 163.406 32.4084 162.79 30.059 163.795C28.1999 164.613 27.1222 167.697 26.7749 169.515Z" fill="#FBBEBE"/>
<path id="Path 1423" d="M142.832 212.709C144.375 212.121 146.076 212.334 147.73 212.556C153.055 213.283 158.459 214.029 163.394 216.154C165.711 217.145 167.917 218.469 169.483 220.417C170.873 222.172 171.684 224.32 172.454 226.436L174.234 231.307C174.99 233.137 175.512 235.055 175.786 237.016C176.342 242.845 172.352 248.34 167.334 251.369C162.315 254.397 156.406 255.475 150.65 256.605C144.894 257.735 139.116 258.984 133.384 260.309C130.71 261.002 127.997 261.535 125.26 261.906C119.124 262.6 112.711 261.577 106.881 263.605C104.564 264.416 102.288 265.62 99.885 266.18C98.2874 266.516 96.6722 266.761 95.0469 266.916L84.0131 268.175C81.7694 268.475 79.5106 268.648 77.2474 268.694C72.4281 268.694 67.6872 267.553 63.0074 266.413C62.5101 266.326 62.0368 266.135 61.6181 265.853C60.8768 265.27 60.7146 264.237 60.6079 263.302C60.1352 259.163 59.7218 255.019 59.3675 250.871C59.2564 249.524 59.173 248.065 59.9098 246.931C60.8367 245.543 62.6442 245.107 64.294 244.838C71.2895 243.695 78.3763 243.203 85.4629 243.37C88.1551 240.68 92.5949 240.667 96.1216 239.203C97.419 238.608 98.6747 237.926 99.8801 237.161C106.188 233.484 113.238 231.259 120.516 230.647C121.941 230.604 123.357 230.402 124.738 230.045C127.467 229.198 129.956 226.892 132.759 227.457C133.106 226.499 133.348 225.216 134.148 224.559C134.545 224.221 135.038 223.994 135.404 223.633C136.178 222.85 136.248 221.619 136.132 220.526C136.015 219.433 135.756 218.313 136.039 217.248C136.156 216.845 136.33 216.46 136.553 216.104C137.939 213.709 140.038 212.477 142.832 212.709Z" fill="#2F2E41"/>
<path id="Path 1430" d="M34.5384 135.537C34.0871 136.009 33.7371 136.568 33.5099 137.181C29.764 145.615 27.5514 154.649 26.9758 163.858C26.9859 164.307 26.8823 164.752 26.6747 165.15C26.4699 165.415 26.2419 165.661 25.9934 165.886C25.7768 166.143 25.6129 166.439 25.511 166.759C25.4092 167.079 25.3714 167.416 25.3998 167.75C25.4282 168.085 25.5223 168.41 25.6766 168.708C25.831 169.007 26.0426 169.271 26.2994 169.488C26.3415 169.523 26.3847 169.557 26.4291 169.59C27.1936 168.153 29.024 167.683 30.6509 167.558C38.4408 166.942 46.05 170.563 53.8632 170.29C53.3119 168.387 52.519 166.558 52.0695 164.632C50.0814 156.08 55.0401 146.77 52 138.533C51.3927 136.885 50.3781 135.264 48.7794 134.542C48.1174 134.275 47.4247 134.092 46.7173 133.997C44.7431 133.64 40.813 132.117 38.9042 132.728C38.1996 132.955 37.9218 133.617 37.3378 134.017C36.4507 134.583 35.2737 134.791 34.5384 135.537Z" fill="#CACACA"/>
<path id="Path 1421_2" d="M142.723 163.795C140.374 162.79 135.93 163.406 133.358 163.332C129.822 163.249 126.087 163.624 123.186 165.647C119.659 168.111 118.037 172.634 118.065 176.935C118.093 181.237 119.539 185.384 121.087 189.399C121.949 191.663 122.857 193.909 123.158 196.293C123.158 196.293 92.3359 199.944 90.4753 201.442C88.6146 202.939 87.7831 205.935 89.21 207.787C90.637 209.639 135.163 211.498 141.025 210.259C141.516 210.271 141.991 210.089 142.348 209.751C142.704 209.413 142.911 208.948 142.925 208.458C143.517 205.004 143.994 201.546 144.314 198.059C144.483 196.263 144.606 194.466 144.731 192.665L146.063 173.557C146.211 172.213 146.193 170.855 146.007 169.515C145.66 167.697 144.582 164.613 142.723 163.795Z" fill="#FBBEBE"/>
<path id="Path 1430_2" d="M135.445 134.017C134.861 133.617 134.583 132.955 133.878 132.728C131.969 132.117 128.039 133.64 126.065 133.997C125.358 134.092 124.665 134.275 124.003 134.542C122.404 135.264 121.39 136.885 120.782 138.533C117.742 146.77 122.701 156.08 120.713 164.632C120.263 166.558 119.47 168.387 118.919 170.29C126.732 170.563 134.342 166.942 142.131 167.558C143.758 167.683 145.589 168.153 146.353 169.59C146.398 169.557 146.441 169.523 146.483 169.488C146.74 169.271 146.951 169.007 147.106 168.708C147.26 168.41 147.354 168.085 147.383 167.75C147.411 167.416 147.373 167.079 147.271 166.759C147.169 166.439 147.006 166.143 146.789 165.886C146.54 165.661 146.312 165.415 146.108 165.15C145.9 164.752 145.796 164.307 145.807 163.858C145.231 154.649 143.018 145.615 139.272 137.181C139.045 136.568 138.695 136.009 138.244 135.537C137.509 134.791 136.332 134.583 135.445 134.017Z" fill="#CACACA"/>
<path id="Vector_4" d="M148.475 259.449L147.12 269.632L107.16 269.258L109.159 254.228L148.475 259.449Z" fill="#FFB6B6"/>
<path id="Vector_5" d="M158.701 258.163L154.333 291L153.917 290.945C150.524 290.494 147.45 288.716 145.369 286C143.289 283.285 142.374 279.855 142.824 276.466L142.824 276.465L145.492 256.409L158.701 258.163Z" fill="#2F2E41"/>
<path id="Path 1427" d="M54.464 217.862C54.464 218.325 53.7366 217.862 53.6701 217.367C53.1605 213.621 50.185 210.533 46.7188 209.033C43.2526 207.533 39.3041 207.454 35.5506 207.81C29.8739 208.347 23.5016 210.519 21.4256 215.82C20.9344 217.059 16.333 228.094 16.782 230.576C17.9917 237.196 22.5237 242.859 28.0153 246.781C33.5068 250.702 39.9233 253.045 46.3238 255.158C63.2462 260.734 80.6084 264.877 98.2264 267.543C101.081 267.974 103.964 268.372 106.698 269.289C109.144 270.108 111.433 271.335 113.825 272.298C119.386 274.529 125.369 275.326 131.296 276.109C132.306 276.239 133.464 276.331 134.21 275.646C135.175 274.754 134.856 273.197 134.581 271.914C133.575 267.038 134.419 261.962 136.949 257.673C137.942 256.006 139.232 254.297 139.044 252.368C138.822 250.118 136.579 248.526 134.345 248.164C132.111 247.803 129.841 248.336 127.597 248.627C126.828 248.804 126.023 248.724 125.303 248.4C124.97 248.175 124.668 247.908 124.404 247.604C122.859 246.115 120.882 245.153 118.755 244.856C116.629 244.559 114.463 244.942 112.569 245.951C111.739 246.414 110.485 245.382 109.621 244.993L99.8757 240.585C88.6797 235.525 77.4281 230.441 65.5831 227.237C64.6379 227.051 63.7397 226.678 62.9415 226.139C62.353 225.676 61.9313 225.049 61.389 224.533C60.2071 223.417 58.5608 222.972 57.1443 222.181C55.7277 221.389 54.1395 219.45 54.464 217.862Z" fill="#2F2E41"/>
<path id="Vector_6" d="M79.6929 211.172C83.5293 211.172 86.6393 208.064 86.6393 204.232C86.6393 200.399 83.5293 197.291 79.6929 197.291C75.8566 197.291 72.7466 200.399 72.7466 204.232C72.7466 208.064 75.8566 211.172 79.6929 211.172Z" fill="#FBBEBE"/>
<path id="Vector_7" d="M95.074 211.172C98.9104 211.172 102.02 208.064 102.02 204.232C102.02 200.399 98.9104 197.291 95.074 197.291C91.2377 197.291 88.1277 200.399 88.1277 204.232C88.1277 208.064 91.2377 211.172 95.074 211.172Z" fill="#FBBEBE"/>
<path id="Vector_8" d="M137.952 219.87H42.5198C41.4056 219.869 40.3374 219.426 39.5495 218.639C38.7617 217.852 38.3185 216.785 38.3171 215.671V157.828C38.3185 156.714 38.7617 155.647 39.5495 154.86C40.3374 154.073 41.4056 153.63 42.5198 153.629H137.952C139.066 153.63 140.134 154.073 140.922 154.86C141.71 155.647 142.153 156.714 142.155 157.828V215.671C142.153 216.785 141.71 217.852 140.922 218.639C140.134 219.426 139.066 219.869 137.952 219.87Z" fill="#3F3D56"/>
<path id="Vector_9" d="M66 55V78.6696H71.5015L78.503 71.195L77.5653 78.6696H101.883L100.383 71.195L103.383 78.6696H107.259V55H66Z" fill="#2F2E41"/>
<path id="taskLine" d="M139.491 118.006L183.03 74.2811H203.585V73.5937H182.742L182.641 73.6957L139 117.523L139.491 118.006Z" fill="#3F3D56"/>
<g id="task1">
<path id="Vector_10" d="M279.137 56.3297H228.692V60.8086H279.137V56.3297Z" fill="#347F9E"/>
<path id="Vector_11" d="M222.544 63.6407H211.865V53H222.544V63.6407ZM212.555 62.9532H221.854V53.6875H212.555L212.555 62.9532Z" fill="#3F3D56"/>
</g>
<g id="task2">
<path id="Vector_12" d="M279.137 71.2594H228.692V75.7383H279.137V71.2594Z" fill="#347F9E"/>
<path id="Vector_13" d="M222.544 78.5702H211.865V67.9297H222.544V78.5702ZM212.555 77.8828H221.854V68.6172H212.555L212.555 77.8828Z" fill="#3F3D56"/>
</g>
<g id="task3">
<path id="Vector_14" d="M279.137 86.189H228.692V90.6678H279.137V86.189Z" fill="#347F9E"/>
<path id="Vector_15" d="M222.544 93.4997H211.865V82.8593H222.544V93.4997ZM212.555 92.8123H221.854V83.5467H212.555L212.555 92.8123Z" fill="#3F3D56"/>
</g>
<g id="circleOnComputer" filter="url(#filter0_dddiiii_75_67)">
<path d="M88.5 194C92.6421 194 96 190.642 96 186.5C96 182.358 92.6421 179 88.5 179C84.3579 179 81 182.358 81 186.5C81 190.642 84.3579 194 88.5 194Z" fill="#FCDC9F"/>
</g>
<g id="smoke">
<path id="Vector_16" d="M222.66 221.874C221.742 215.719 221.5 209.482 221.937 203.274L222.66 193C218.678 200.894 219.578 211.284 222.66 221.874V221.874Z" fill="#CACACA"/>
<path id="Vector_17" d="M225.764 223.593C225.323 219.92 225.207 216.215 225.417 212.521L225.764 206.406C223.849 211.105 224.282 217.289 225.764 223.593Z" fill="#CACACA"/>
</g>
</g>
<defs>
<filter id="filter0_dddiiii_75_67" x="69.75" y="169" width="37.5" height="35" filterUnits="userSpaceOnUse" color-interpolation-filters="sRGB">
<feFlood flood-opacity="0" result="BackgroundImageFix"/>
<feColorMatrix in="SourceAlpha" type="matrix" values="0 0 0 0 0 0 0 0 0 0 0 0 0 0 0 0 0 0 127 0" result="hardAlpha"/>
<feOffset/>
<feGaussianBlur stdDeviation="3"/>
<feComposite in2="hardAlpha" operator="out"/>
<feColorMatrix type="matrix" values="0 0 0 0 1 0 0 0 0 1 0 0 0 0 1 0 0 0 0.25 0"/>
<feBlend mode="normal" in2="BackgroundImageFix" result="effect1_dropShadow_75_67"/>
<feColorMatrix in="SourceAlpha" type="matrix" values="0 0 0 0 0 0 0 0 0 0 0 0 0 0 0 0 0 0 127 0" result="hardAlpha"/>
<feOffset dx="-1.25"/>
<feGaussianBlur stdDeviation="5"/>
<feComposite in2="hardAlpha" operator="out"/>
<feColorMatrix type="matrix" values="0 0 0 0 1 0 0 0 0 0 0 0 0 0 1 0 0 0 0.25 0"/>
<feBlend mode="normal" in2="effect1_dropShadow_75_67" result="effect2_dropShadow_75_67"/>
<feColorMatrix in="SourceAlpha" type="matrix" values="0 0 0 0 0 0 0 0 0 0 0 0 0 0 0 0 0 0 127 0" result="hardAlpha"/>
<feOffset dx="1.25"/>
<feGaussianBlur stdDeviation="5"/>
<feComposite in2="hardAlpha" operator="out"/>
<feColorMatrix type="matrix" values="0 0 0 0 0 0 0 0 0 1 0 0 0 0 1 0 0 0 0.25 0"/>
<feBlend mode="normal" in2="effect2_dropShadow_75_67" result="effect3_dropShadow_75_67"/>
<feBlend mode="normal" in="SourceGraphic" in2="effect3_dropShadow_75_67" result="shape"/>
<feColorMatrix in="SourceAlpha" type="matrix" values="0 0 0 0 0 0 0 0 0 0 0 0 0 0 0 0 0 0 127 0" result="hardAlpha"/>
<feOffset/>
<feGaussianBlur stdDeviation="1.25"/>
<feComposite in2="hardAlpha" operator="arithmetic" k2="-1" k3="1"/>
<feColorMatrix type="matrix" values="0 0 0 0 1 0 0 0 0 1 0 0 0 0 1 0 0 0 1 0"/>
<feBlend mode="normal" in2="shape" result="effect4_innerShadow_75_67"/>
<feColorMatrix in="SourceAlpha" type="matrix" values="0 0 0 0 0 0 0 0 0 0 0 0 0 0 0 0 0 0 127 0" result="hardAlpha"/>
<feOffset dx="2.5"/>
<feGaussianBlur stdDeviation="5"/>
<feComposite in2="hardAlpha" operator="arithmetic" k2="-1" k3="1"/>
<feColorMatrix type="matrix" values="0 0 0 0 1 0 0 0 0 0 0 0 0 0 1 0 0 0 0.25 0"/>
<feBlend mode="normal" in2="effect4_innerShadow_75_67" result="effect5_innerShadow_75_67"/>
<feColorMatrix in="SourceAlpha" type="matrix" values="0 0 0 0 0 0 0 0 0 0 0 0 0 0 0 0 0 0 127 0" result="hardAlpha"/>
<feOffset dx="-2.5"/>
<feGaussianBlur stdDeviation="5"/>
<feComposite in2="hardAlpha" operator="arithmetic" k2="-1" k3="1"/>
<feColorMatrix type="matrix" values="0 0 0 0 0 0 0 0 0 1 0 0 0 0 1 0 0 0 0.25 0"/>
<feBlend mode="normal" in2="effect5_innerShadow_75_67" result="effect6_innerShadow_75_67"/>
<feColorMatrix in="SourceAlpha" type="matrix" values="0 0 0 0 0 0 0 0 0 0 0 0 0 0 0 0 0 0 127 0" result="hardAlpha"/>
<feOffset dx="5"/>
<feGaussianBlur stdDeviation="12.5"/>
<feComposite in2="hardAlpha" operator="arithmetic" k2="-1" k3="1"/>
<feColorMatrix type="matrix" values="0 0 0 0 1 0 0 0 0 0 0 0 0 0 1 0 0 0 0.25 0"/>
<feBlend mode="normal" in2="effect6_innerShadow_75_67" result="effect7_innerShadow_75_67"/>
</filter>
<clipPath id="clip0_75_67">
<rect width="483" height="291" fill="white"/>
</clipPath>
</defs>
</svg>
